PathFileType	4	(X/Y/Z)	C:\MyCloud\GitHub\OpenSimScripting\Matlab\Data\Gait2354_Simbody\Static_Marker.trc	
DataRate	CameraRate	NumFrames	NumMarkers	Units	OrigDataRate	OrigDataStartFrame	OrigNumFrames
100	100	7	33	mm	100	88	100
Frame#	Time	C7			CLAV			STRN			LSHO			RSHO			LASIS			RLSIS			LPSIS			RPSIS			LGTF			LLCF			LMCF			LAF			RGTF			RLCF			RMCF			RAF			RFH			RANK			RMANK			RATT			LFH			LANK			LMANK			LATT			LHEE			L5MT			LTOE			L1MT			RHEE			R5MT			RTOE			R1MT			
		X1	Y1	Z1	X2	Y2	Z2	X3	Y3	Z3	X4	Y4	Z4	X5	Y5	Z5	X6	Y6	Z6	X7	Y7	Z7	X8	Y8	Z8	X9	Y9	Z9	X10	Y10	Z10	X11	Y11	Z11	X12	Y12	Z12	X13	Y13	Z13	X14	Y14	Z14	X15	Y15	Z15	X16	Y16	Z16	X17	Y17	Z17	X18	Y18	Z18	X19	Y19	Z19	X20	Y20	Z20	X21	Y21	Z21	X22	Y22	Z22	X23	Y23	Z23	X24	Y24	Z24	X25	Y25	Z25	X26	Y26	Z26	X27	Y27	Z27	X28	Y28	Z28	X29	Y29	Z29	X30	Y30	Z30	X31	Y31	Z31	X32	Y32	Z32	X33	Y33	Z33	

88	0.88000	370.37088	1586.74634	-41.78400	527.43854	1498.01868	-28.26761	555.70300	1437.35535	-35.97672	428.68497	1561.10913	-146.96315	417.91962	1560.80652	73.43147	504.72678	989.89331	-180.37708	504.32623	997.25830	115.57780	299.93738	1023.48846	-74.31387	305.74661	1024.28369	-8.52015	392.21426	881.52252	-213.87657	460.20737	517.80719	-219.68370	449.21078	516.02069	-91.69090	532.75739	798.96954	-200.87288	439.02374	879.42102	149.43985	479.18793	514.79431	148.40543	443.77420	496.76779	22.93661	540.97473	618.83087	97.08980	452.67307	455.14893	169.47018	386.50256	48.44191	143.94711	403.24051	75.11787	47.71322	497.12854	424.52997	118.24334	432.72495	471.77524	-233.09552	384.17819	54.38435	-200.81784	402.54462	78.62556	-106.32324	479.78250	428.35031	-192.06659	336.17258	67.18686	-153.17030	502.20160	9.42894	-229.78804	589.25110	30.50902	-145.40294	531.10040	22.68270	-106.09499	332.80777	72.16860	101.45391	496.00232	19.31913	174.20016	583.37109	27.73143	100.58141	527.15363	22.57212	54.81052	
89	0.89000	370.32056	1586.71716	-41.82566	527.42969	1498.07190	-28.28060	555.67859	1437.34180	-35.98756	428.67068	1561.09460	-146.99568	417.90808	1560.76990	73.34174	504.75891	989.91669	-180.38802	504.30621	997.30249	115.55062	299.89288	1023.48206	-74.33246	305.74844	1024.26477	-8.50147	392.16733	881.48950	-213.89096	460.21188	517.80219	-219.68727	449.18433	516.04749	-91.73067	532.74176	798.98059	-200.85707	439.03806	879.42255	149.45250	479.20145	514.78979	148.37813	443.75592	496.80112	22.96523	540.98083	618.80817	97.11028	452.66660	455.20560	169.48225	386.48279	48.42931	143.91101	403.23303	75.17734	47.72747	497.09805	424.66565	118.32977	432.73218	471.74832	-233.11177	384.17441	54.42511	-200.86493	402.46051	78.67138	-106.32941	479.80649	428.36026	-192.07684	336.17920	67.19184	-153.15427	502.14319	9.49747	-229.83417	589.27148	30.53245	-145.40825	531.11615	22.71447	-106.11236	332.81989	72.19910	101.46355	496.02545	19.29300	174.17899	583.35718	27.70447	100.54560	527.15100	22.52146	54.77021	
90	0.90000	370.26813	1586.69849	-41.81297	527.36438	1498.09253	-28.34861	555.66321	1437.39075	-36.03105	428.59650	1561.02356	-147.00429	417.87964	1560.74548	73.32310	504.68735	989.93512	-180.35944	504.27377	997.30927	115.56312	299.87683	1023.40375	-74.26174	305.70901	1024.20862	-8.43951	392.15097	881.50879	-213.83879	460.20215	517.79156	-219.67021	449.17630	516.02466	-91.70017	532.65125	799.00964	-200.85226	439.03168	879.40729	149.44284	479.19421	514.80511	148.41524	443.62332	496.73349	22.96322	541.00183	618.88263	97.08889	452.66785	455.17767	169.49922	386.47528	48.39315	143.94742	403.18683	75.08144	47.76223	497.10748	424.66040	118.31710	432.67911	471.75916	-233.10286	384.14716	54.33195	-200.76289	402.45682	78.56516	-106.28387	479.76114	428.37207	-192.07118	336.16907	67.17037	-153.12367	502.15695	9.54384	-229.84889	589.26215	30.55198	-145.37418	531.09888	22.73827	-106.10136	332.78735	72.15590	101.48643	495.99799	19.28600	174.19600	583.34985	27.73420	100.59761	527.13123	22.58777	54.79093	
91	0.91000	370.24771	1586.67627	-41.86818	527.29504	1498.03015	-28.42929	555.59717	1437.36707	-36.10461	428.60419	1561.04126	-147.05254	417.90698	1560.79541	73.31017	504.65863	989.87488	-180.35277	504.25397	997.33624	115.50152	299.86511	1023.39581	-74.27526	305.70621	1024.21436	-8.47867	392.13708	881.47296	-213.83786	460.19263	517.78711	-219.68706	449.17844	515.97906	-91.68648	532.63086	798.97125	-200.85512	439.06015	879.39349	149.45815	479.23019	514.78729	148.39520	443.69241	496.69553	22.96621	541.02039	618.86249	97.07838	452.70041	455.13953	169.50087	386.49924	48.41893	143.96349	403.22473	75.10222	47.75628	497.14166	424.66220	118.32780	432.70111	471.75424	-233.09711	384.17822	54.33384	-200.77774	402.48788	78.65548	-106.28751	479.77307	428.34668	-192.05333	336.19739	67.13465	-153.12682	502.19479	9.45406	-229.81461	589.26532	30.50950	-145.36725	531.10632	22.67936	-106.08353	332.80673	72.16116	101.47702	496.02908	19.23841	174.15448	583.35773	27.73140	100.60938	527.13550	22.58381	54.78526	
92	0.92000	370.19376	1586.69629	-41.91290	527.25629	1498.05737	-28.46562	555.58990	1437.39709	-36.13179	428.54141	1561.05457	-147.11217	417.89359	1560.81323	73.24834	504.65021	989.94562	-180.37007	504.19339	997.41425	115.44641	299.81778	1023.46466	-74.31731	305.68695	1024.22302	-8.49298	392.05978	881.48102	-213.86946	460.17114	517.81421	-219.68845	449.21216	515.99268	-91.75333	532.60791	799.02325	-200.83421	439.06033	879.40051	149.46303	479.22491	514.80731	148.36003	443.73489	496.74713	22.95310	541.00183	618.86676	97.06773	452.69760	455.20090	169.46426	386.49646	48.42646	143.90628	403.24094	75.19392	47.70471	497.12970	424.63953	118.30499	432.64700	471.81241	-233.10223	384.14902	54.45029	-200.84895	402.51865	78.68981	-106.35274	479.76810	428.36145	-192.04129	336.18964	67.20721	-153.16541	502.19940	9.47078	-229.82643	589.27478	30.52227	-145.42529	531.11462	22.69301	-106.13161	332.80917	72.18015	101.43983	496.03699	19.30479	174.18449	583.37360	27.74958	100.56127	527.12872	22.60362	54.76983	
93	0.93000	370.14865	1586.66711	-41.94513	527.23621	1498.10132	-28.51119	555.58746	1437.43518	-36.16654	428.47403	1560.97778	-147.14067	417.84180	1560.80603	73.20304	504.59927	989.93396	-180.36215	504.12335	997.41528	115.44781	299.79196	1023.40918	-74.23335	305.67505	1024.17480	-8.42721	391.99054	881.49829	-213.83144	460.17798	517.80725	-219.67728	449.20776	516.03564	-91.67672	532.55566	799.04456	-200.82382	439.02304	879.39111	149.45531	479.26105	514.78748	148.38632	443.71698	496.74390	22.93443	541.03278	618.89307	97.05432	452.71548	455.18149	169.48447	386.46793	48.40459	143.97444	403.16714	75.10252	47.75642	497.17255	424.55795	118.28162	432.66165	471.80988	-233.08759	384.16531	54.36635	-200.79053	402.48218	78.55721	-106.32935	479.76459	428.37671	-192.05945	336.16983	67.19367	-153.11700	502.20355	9.51652	-229.85387	589.27734	30.56901	-145.37665	531.10004	22.75031	-106.12012	332.81281	72.23389	101.54767	496.00586	19.30490	174.18819	583.32886	27.71084	100.57341	527.12378	22.54740	54.78205	
94	0.94000	370.10294	1586.65271	-42.00294	527.17688	1498.09460	-28.56674	555.56372	1437.44385	-36.21613	428.47232	1560.93201	-147.18414	417.81552	1560.81262	73.16634	504.48572	989.90833	-180.39565	504.07233	997.36493	115.41978	299.76352	1023.34088	-74.19295	305.66623	1024.13318	-8.38815	391.93771	881.41058	-213.83372	460.14209	517.79004	-219.69713	449.17761	516.00336	-91.65972	532.52338	799.03070	-200.86121	439.01428	879.36963	149.43230	479.29224	514.76965	148.36475	443.72318	496.74680	22.91949	541.04590	618.86725	97.02948	452.72150	455.16330	169.49248	386.47885	48.41449	143.97673	403.18018	75.05802	47.76591	497.18338	424.53629	118.23349	432.37051	471.50839	-233.23734	384.18475	54.29983	-200.75221	402.48044	78.59418	-106.30787	479.76147	428.35434	-192.07768	336.19046	67.16844	-153.11848	502.17398	9.46419	-229.84331	589.26038	30.51520	-145.39264	531.09839	22.68732	-106.10303	332.80237	72.15294	101.49205	496.00824	19.26361	174.17921	583.31720	27.70453	100.58197	527.12708	22.54450	54.76537	
